# AST/ASF file generated using VICON BodyLanguage
# -----------------------------------------------
:version 1.10
:name VICON
:units
  mass 1.0
  length 0.45
  angle deg
:documentation
   .ast/.asf automatically generated from VICON data using
   VICON BodyBuilder and BodyLanguage model FoxedUp or BRILLIANT.MOD
:root
   order TX TY TZ RX RY RZ
   axis XYZ
   position 0 0 0  
   orientation 0 0 0 
:bonedata
  begin
     id 1 
     name lhipjoint
     direction 0.722297 -0.617336 0.311742 
     length 2.6635 
     axis 0 0 0  XYZ
  end
  begin
     id 2 
     name lfemur
     direction 0.34202 -0.939693 0  
     length 7.39349  
     axis 0 0 20  XYZ
    dof rx ry rz
    limits (-160.0 20.0)
           (-70.0 70.0)
           (-60.0 70.0)
  end
  begin
     id 3 
     name ltibia
     direction 0.34202 -0.939693 0   
     length 7.36294   
     axis 0 0 20   XYZ
    dof rx
    limits (-10.0 170.0)
  end
  begin
     id 4 
     name lfoot
     direction 0.104879 -0.288152 0.951824   
     length 2.16981   
     axis -90 7.62852e-016 20   XYZ
    dof rx rz
    limits (-45.0 90.0)
           (-70.0 20.0)
  end
  begin
     id 5 
     name ltoes
     direction 1.53586e-011 -4.21895e-011 1   
     length 1.08218   
     axis -90 7.62852e-016 20   XYZ
    dof rx
    limits (-90.0 20.0)
  end
  begin
     id 6 
     name rhipjoint
     direction -0.75102 -0.589393 0.297631   
     length 2.78977  
     axis 0 0 0  XYZ 
  end
  begin
     id 7 
     name rfemur
     direction -0.34202 -0.939693 0   
     length 7.46076   
     axis 0 0 -20   XYZ
    dof rx ry rz
    limits (-160.0 20.0)
           (-70.0 70.0)
           (-70.0 60.0)
  end
  begin
     id 8 
     name rtibia
     direction -0.34202 -0.939693 0   
     length 7.31726   
     axis 0 0 -20   XYZ
    dof rx
    limits (-10.0 170.0)
 end
 begin
     id 9 
     name rfoot
     direction -0.107991 -0.296704 0.948844   
     length 2.09388  
     axis -90 -7.62852e-016 -20   XYZ
    dof rx rz
    limits (-45.0 90.0)
           (-20.0 70.0)
  end
  begin
     id 10 
     name rtoes
     direction -1.53559e-011 -4.21911e-011 1   
     length 1.04433   
     axis -90 -7.62852e-016 -20   XYZ
    dof rx
    limits (-90.0 20.0)
  end
  begin
     id 11 
     name lowerback
     direction 0.0165164 0.98272 0.184358   
     length 1.71896   
     axis 0 0 0   XYZ
    dof rx ry rz
    limits (-20.0 45.0)
           (-30.0 30.0)
           (-30.0 30.0)
  end
  begin
     id 12 
     name upperback
     direction -0.00887249 0.992297 0.123566   
     length 1.71504   
     axis 0 0 0   XYZ
    dof rx ry rz
    limits (-20.0 45.0)
           (-30.0 30.0)
           (-30.0 30.0)
  end
  begin
     id 13 
     name thorax
     direction -0.0157026 0.998908 0.0440032   
     length 1.77022   
     axis 0 0 0   XYZ
    dof rx ry rz
    limits (-20.0 45.0)
           (-30.0 30.0)
           (-30.0 30.0)
  end
  begin
     id 14 
     name lowerneck
     direction -0.0238856 0.998137 0.0561411   
     length 1.89341   
     axis 0 0 0   XYZ
    dof rx ry rz
    limits (-20.0 45.0)
           (-30.0 30.0)
           (-30.0 30.0)
  end
  begin
     id 15 
     name upperneck
     direction 0.0276574 0.952253 -0.304056   
     length 1.86999   
     axis 0 0 0   XYZ
    dof rx ry rz
    limits (-20.0 45.0)
           (-30.0 30.0)
           (-30.0 30.0)
  end
  begin
     id 16
     name head
     direction 0.00800083 0.994258 -0.106712  
     length 1.91492  
     axis 0 0 0   XYZ
    dof rx ry rz
    limits (-20.0 45.0)
           (-30.0 30.0)
           (-30.0 30.0)
  end
  begin
     id 17 
     name lclavicle
     direction 0.97203 0.225407 0.06595  
     length 3.34889  
     axis 0 0 0   XYZ
    dof ry rz
    limits (-20.0 10.0)
           (0.0 20.0)
  end
  begin
     id 18 
     name lhumerus
     direction 1 -4.48973e-011 2.20267e-027   
     length 4.85645   
     axis 180 -30 -90   XYZ
    dof rx ry rz
    limits (-60.0 90.0)
           (-90.0 90.0)
           (-90.0 90.0)
  end
  begin
     id 19
     name lradius
     direction 1 -4.4897e-011 4.60472e-027   
     length 2.79874   
     axis 180 -30 -90   XYZ
    dof rx
    limits (-10.0 170.0)
  end
  begin
     id 20
     name lwrist
     direction 1 -4.48952e-011 1.14928e-026   
     length 1.39937   
     axis -6.29373e-015 90 90   XYZ
    dof ry
    limits (-180.0 0.0)
 end
  begin
     id 21 
     name lhand
     direction 1 -4.48967e-011 2.29886e-026   
     length 0.573398   
     axis -1.46689e-014 90 90   XYZ
    dof rx rz
    limits (-90.0 90.0)
           (-45.0 45.0)
  end
  begin
     id 22 
     name lfingers
     direction 1 -4.48955e-011 4.59726e-026   
     length 0.462289   
     axis -2.93383e-014 90 90   XYZ
    dof rx
    limits (0.0 90.0)
  end
  begin
     id 23
     name lthumb
     direction 0.707107 -6.34866e-011 0.707107   
     length 0.663757   
     axis -90 45 5.69224e-014   XYZ
    dof rx rz
    limits (-45.0 45.0)
           (-45.0 45.0)
  end
  begin
     id 24 
     name rclavicle
     direction -0.981571 0.157346 0.108443   
     length 3.35257  
     axis 0 0 0   XYZ 
    dof ry rz
    limits (-10.0 20.0)
           (-20.0 0.0)
  end
  begin
     id 25 
     name rhumerus
     direction -1 -4.48967e-011 8.58308e-029  
     length 4.67018   
     axis 180 30 90   XYZ
    dof rx ry rz
    limits (-90.0 60.0)
           (-90.0 90.0)
           (-90.0 90.0)
  end
  begin
     id 26 
     name rradius
     direction -1 -4.48958e-011 4.52548e-027   
     length 2.65534   
     axis 180 30 90   XYZ
    dof rx
    limits (-10.0 170.0)
  end
  begin
     id 27 
     name rwrist
     direction -1 -4.48977e-011 1.14952e-026   
     length 1.32767   
     axis -6.29373e-015 -90 -90   XYZ
    dof ry
    limits (-180.0 0.0)
  end
  begin
     id 28
     name rhand
     direction -1 -4.48924e-011 2.29804e-026   
     length 0.594069   
     axis -1.46689e-014 -90 -90   XYZ
    dof rx rz
    limits (-90.0 90.0)
           (-45.0 45.0)
  end
  begin
     id 29
     name rfingers
     direction -1 -4.48998e-011 4.59888e-026   
     length 0.478954   
     axis -2.93383e-014 -90 -90   XYZ
    dof rx
    limits (0.0 90.0)
  end
  begin
     id 30
     name rthumb
     direction -0.707107 -6.34933e-011 0.707107   
     length 0.687685   
     axis -90 -45 -5.69224e-014   XYZ
    dof rx rz
    limits (-45.0 45.0)
           (-45.0 45.0)
  end
:hierarchy
  begin
    root lhipjoint rhipjoint lowerback
    lhipjoint lfemur
    lfemur ltibia
    ltibia lfoot
    lfoot ltoes
    rhipjoint rfemur
    rfemur rtibia
    rtibia rfoot
    rfoot rtoes
    lowerback upperback
    upperback thorax
    thorax lowerneck lclavicle rclavicle
    lowerneck upperneck
    upperneck head
    lclavicle lhumerus
    lhumerus lradius
    lradius lwrist
    lwrist lhand lthumb
    lhand lfingers
    rclavicle rhumerus
    rhumerus rradius
    rradius rwrist
    rwrist rhand rthumb
    rhand rfingers
  end

#!OML:ASF E:\pregnant2\Project 1\Capture day 1\Session 1\pregnant2.ASF
:FULLY-SPECIFIED
:DEGREES
72
root 4.0501 16.9177 39.7274 -148.199 -23.4669 176.126
lowerback -17.5538 7.06404 1.12241
upperback -16.2994 5.99663 -6.9872
thorax -7.10251 1.14561 -7.35356
lowerneck -3.86742 15.6741 23.0281
upperneck 27.8717 19.5117 -5.92442
head 13.0008 10.1503 -3.09261
rclavicle -4.73108e-014 2.38542e-015
rhumerus -59.8616 6.46765 -100.31
rradius 91.7591
rwrist -16.3722
rhand -1.87428 -14.3954
rfingers 7.12502
rthumb 23.794 -42.942
lclavicle -4.73108e-014 2.38542e-015
lhumerus -61.6518 -29.6875 102.881
lradius 100.908
lwrist 22.4486
lhand 1.1028 27.9248
lfingers 7.12502
lthumb 26.6462 56.0694
rfemur -43.0175 10.4896 16.5567
rtibia 32.7199
rfoot -27.5524 -31.7887
rtoes 16.2896
lfemur -46.6368 -20.0908 -11.7167
ltibia 26.3583
lfoot -11.6192 2.70153
ltoes -21.0139
73
root 4.04878 16.9176 39.7272 -148.195 -23.4974 176.13
lowerback -17.5643 7.10768 1.16589
upperback -16.3038 6.0507 -7.0109
thorax -7.08753 1.16837 -7.39609
lowerneck -3.69075 15.8148 23.2647
upperneck 27.8229 19.76 -6.03879
head 13.0336 10.2765 -3.12339
rclavicle -1.00585e-013 1.43125e-014
rhumerus -59.8739 6.34707 -100.273
rradius 91.7649
rwrist -16.3357
rhand -1.91368 -14.4015
rfingers 7.12502
rthumb 23.7562 -42.953
lclavicle -1.00585e-013 1.43125e-014
lhumerus -61.5978 -29.7788 102.878
lradius 101.015
lwrist 22.1617
lhand 0.984219 27.9528
lfingers 7.12502
lthumb 26.5327 56.1147
rfemur -43.0136 10.4725 16.5691
rtibia 32.7244
rfoot -27.5884 -31.7712
rtoes 16.3567
lfemur -46.6391 -20.0765 -11.7256
ltibia 26.3556
lfoot -11.6262 2.65826
ltoes -21.0257
74
root 4.04856 16.9174 39.7264 -148.167 -23.5369 176.107
lowerback -17.5791 7.14273 1.18699
upperback -16.3066 6.09446 -7.04885
thorax -7.07102 1.18673 -7.4429
lowerneck -3.58884 15.9681 23.4858
upperneck 27.8369 20.0046 -6.12161
head 13.1021 10.4002 -3.13359
rclavicle -5.82439e-014 3.33958e-014
rhumerus -59.8831 6.2149 -100.263
rradius 91.7688
rwrist -16.298
rhand -2.02103 -14.4103
rfingers 7.12502
rthumb 23.6532 -42.9752
lclavicle -5.82439e-014 3.33958e-014
lhumerus -61.5024 -29.8254 102.833
lradius 101.086
lwrist 21.831
lhand 0.879425 27.9174
lfingers 7.12502
lthumb 26.4324 56.0944
rfemur -43.0314 10.4919 16.5359
rtibia 32.731
rfoot -27.6161 -31.8482
rtoes 16.3177
lfemur -46.6581 -20.0743 -11.74
ltibia 26.352
lfoot -11.6447 2.59376
ltoes -20.9657
75
root 4.04823 16.9174 39.7263 -148.185 -23.5573 176.106
lowerback -17.525 7.18822 1.23468
upperback -16.3278 6.14775 -7.08689
thorax -7.10743 1.20516 -7.50981
lowerneck -3.42694 16.1133 23.7346
upperneck 27.8533 20.2461 -6.20817
head 13.1648 10.5255 -3.15346
rclavicle 5.1684e-015 -4.37326e-014
rhumerus -59.9076 6.09176 -100.258
rradius 91.7618
rwrist -16.3061
rhand -2.04198 -14.4831
rfingers 7.12502
rthumb 23.6331 -43.0505
lclavicle 5.1684e-015 -4.37326e-014
lhumerus -61.4829 -29.904 102.79
lradius 101.21
lwrist 21.5277
lhand 0.74693 27.9348
lfingers 7.12502
lthumb 26.3056 56.1308
rfemur -43.0073 10.4991 16.5408
rtibia 32.7321
rfoot -27.6025 -31.88
rtoes 16.3033
lfemur -46.6354 -20.0715 -11.7512
ltibia 26.3518
lfoot -11.6553 2.56198
ltoes -20.9944
76
root 4.04762 16.9174 39.726 -148.181 -23.5976 176.118
lowerback -17.5333 7.22773 1.28543
upperback -16.3266 6.19845 -7.10211
thorax -7.08708 1.22748 -7.54727
lowerneck -3.27988 16.2586 23.9351
upperneck 27.8301 20.5027 -6.32241
head 13.2135 10.6506 -3.1738
rclavicle -1.53661e-013 3.10104e-014
rhumerus -59.8941 5.99033 -100.199
rradius 91.7792
rwrist -16.3667
rhand -2.12688 -14.5041
rfingers 7.12502
rthumb 23.5517 -43.0821
lclavicle -1.53661e-013 3.10104e-014
lhumerus -61.4088 -29.9477 102.743
lradius 101.342
lwrist 21.1444
lhand 0.701971 27.8837
lfingers 7.12502
lthumb 26.2626 56.0861
rfemur -43.0094 10.4702 16.5693
rtibia 32.735
rfoot -27.6166 -31.8597
rtoes 16.3812
lfemur -46.6492 -20.0693 -11.7334
ltibia 26.3501
lfoot -11.6684 2.52477
ltoes -20.9844
77
root 4.04688 16.9176 39.7251 -148.169 -23.6371 176.112
lowerback -17.5273 7.27867 1.32543
upperback -16.338 6.26056 -7.14857
thorax -7.08548 1.25211 -7.61364
lowerneck -3.18157 16.3914 24.1309
upperneck 27.8713 20.7084 -6.36402
head 13.2816 10.7579 -3.17178
rclavicle -6.85807e-014 -4.92986e-014
rhumerus -59.8924 5.8201 -100.153
rradius 91.7998
rwrist -16.4758
rhand -2.17687 -14.5518
rfingers 7.12502
rthumb 23.5037 -43.1359
lclavicle -6.85807e-014 -4.92986e-014
lhumerus -61.3412 -30.0336 102.704
lradius 101.433
lwrist 20.7428
lhand 0.556005 27.8808
lfingers 7.12502
lthumb 26.1228 56.104
rfemur -43.0086 10.4692 16.5658
rtibia 32.7324
rfoot -27.6622 -31.8906
rtoes 16.4059
lfemur -46.6548 -20.0547 -11.7444
ltibia 26.3478
lfoot -11.6578 2.46216
ltoes -21.0399
78
root 4.04661 16.9176 39.725 -148.158 -23.6742 176.112
lowerback -17.5111 7.32594 1.3753
upperback -16.3596 6.31403 -7.18777
thorax -7.10201 1.26993 -7.68019
lowerneck -3.06682 16.5255 24.3228
upperneck 27.9246 20.9213 -6.41007
head 13.3536 10.8673 -3.17023
rclavicle 3.65764e-014 -1.03368e-014
rhumerus -59.9196 5.68579 -100.13
rradius 91.8199
rwrist -16.5093
rhand -2.37887 -14.5719
rfingers 7.12502
rthumb 23.31 -43.1807
lclavicle 3.65764e-014 -1.03368e-014
lhumerus -61.3081 -30.0784 102.635
lradius 101.566
lwrist 20.3524
lhand 0.52929 27.8116
lfingers 7.12502
lthumb 26.0972 56.0385
rfemur -43.0138 10.4677 16.5695
rtibia 32.7343
rfoot -27.6937 -31.8987
rtoes 16.5105
lfemur -46.6707 -20.0481 -11.7411
ltibia 26.3438
lfoot -11.6689 2.42386
ltoes -21.0724
79
root 4.04566 16.9177 39.725 -148.164 -23.7385 176.11
lowerback -17.5021 7.36278 1.42441
upperback -16.3612 6.3611 -7.21458
thorax -7.0933 1.28954 -7.73166
lowerneck -2.95697 16.651 24.5177
upperneck 27.9766 21.1289 -6.48224
head 13.4297 10.9719 -3.17926
rclavicle -2.66371e-014 3.65764e-014
rhumerus -59.9223 5.56168 -100.081
rradius 91.8184
rwrist -16.4858
rhand -2.44284 -14.6054
rfingers 7.12502
rthumb 23.2486 -43.222
lclavicle -2.66371e-014 3.65764e-014
lhumerus -61.2107 -30.1113 102.571
lradius 101.669
lwrist 19.9084
lhand 0.582083 27.7391
lfingers 7.12502
lthumb 26.1478 55.9586
rfemur -42.9943 10.4457 16.5874
rtibia 32.7345
rfoot -27.6985 -31.9403
rtoes 16.4674
lfemur -46.6622 -20.036 -11.7569
ltibia 26.3343
lfoot -11.6774 2.33412
ltoes -21.0258
80
root 4.04618 16.9177 39.7242 -148.141 -23.787 176.1
lowerback -17.5194 7.39264 1.44246
upperback -16.3642 6.39967 -7.23189
thorax -7.07816 1.30728 -7.7543
lowerneck -2.82909 16.7605 24.6849
upperneck 27.9867 21.3302 -6.58383
head 13.4834 11.0693 -3.19991
rclavicle -7.67309e-014 1.11319e-014
rhumerus -59.9377 5.47503 -100.06
rradius 91.8177
rwrist -16.4098
rhand -2.75123 -14.4591
rfingers 7.12502
rthumb 22.9527 -43.1127
lclavicle -7.67309e-014 1.11319e-014
lhumerus -61.1283 -30.0981 102.479
lradius 101.801
lwrist 19.4629
lhand 0.616738 27.6658
lfingers 7.12502
lthumb 26.181 55.8803
rfemur -43.0091 10.4668 16.572
rtibia 32.7417
rfoot -27.7722 -31.9798
rtoes 16.5487
lfemur -46.6832 -20.0353 -11.7529
ltibia 26.3243
lfoot -11.6932 2.29911
ltoes -20.9964
81
root 4.04551 16.9173 39.7237 -148.118 -23.849 176.083
lowerback -17.5175 7.43755 1.48546
upperback -16.3826 6.4508 -7.27912
thorax -7.08353 1.32452 -7.82494
lowerneck -2.74817 16.8629 24.8368
upperneck 28.0487 21.4909 -6.6141
head 13.5504 11.1523 -3.19578
rclavicle 1.64991e-014 3.97569e-015
rhumerus -59.9527 5.32063 -100.016
rradius 91.8241
rwrist -16.3976
rhand -2.75906 -14.5526
rfingers 7.12502
rthumb 22.9452 -43.2072
lclavicle 1.64991e-014 3.97569e-015
lhumerus -61.0825 -30.1227 102.404
lradius 101.942
lwrist 19.037
lhand 0.680458 27.5295
lfingers 7.12502
lthumb 26.242 55.735
rfemur -43.021 10.4719 16.5522
rtibia 32.7484
rfoot -27.8419 -32.0271
rtoes 16.6687
lfemur -46.7036 -20.0438 -11.7577
ltibia 26.3116
lfoot -11.7058 2.22628
ltoes -21.0617
82
root 4.04545 16.9171 39.724 -148.106 -23.9206 176.066
lowerback -17.5324 7.46082 1.50205
upperback -16.3797 6.48333 -7.29281
thorax -7.06397 1.34095 -7.84341
lowerneck -2.64805 16.9525 24.9799
upperneck 28.083 21.6582 -6.70721
head 13.6104 11.232 -3.21527
rclavicle -9.30312e-014 1.66979e-014
rhumerus -59.9266 5.2382 -99.9493
rradius 91.7994
rwrist -16.4002
rhand -3.03903 -14.544
rfingers 7.12502
rthumb 22.6765 -43.2317
lclavicle -9.30312e-014 1.66979e-014
lhumerus -60.9899 -30.0851 102.296
lradius 102.09
lwrist 18.638
lhand 0.842882 27.3821
lfingers 7.12502
lthumb 26.3975 55.5644
rfemur -43.0174 10.3907 16.5821
rtibia 32.7574
rfoot -27.8358 -32.0224
rtoes 16.5992
lfemur -46.7173 -20.0729 -11.7517
ltibia 26.3013
lfoot -11.6991 2.18843
ltoes -21.02
